<svg width="338" height="224" viewBox="0 0 338 224" fill="none" xmlns="http://www.w3.org/2000/svg">
<g clip-path="url(#clip0_1_2)">
<rect x="233" y="41" width="43" height="41" rx="7" stroke="white" stroke-width="2"/>
<rect x="1" y="48" width="43" height="41" rx="7" stroke="white" stroke-width="2"/>
<rect x="51" y="48" width="43" height="41" rx="7" stroke="white" stroke-width="2"/>
<rect x="101" y="48" width="43" height="41" rx="7" stroke="white" stroke-width="2"/>
<rect x="51" y="1" width="43" height="41" rx="7" stroke="white" stroke-width="2"/>
<rect x="55" y="148" width="198" height="38" rx="3" stroke="white" stroke-width="2"/>
<path d="M87.5 12.5938L81.1719 35H78.0938L73.4844 18.625C73.2865 17.9271 73.1667 17.1667 73.125 16.3438H73.0625C73 17.1146 72.8646 17.8646 72.6562 18.5938L68.0156 35H64.9688L58.4062 12.5938H61.2969L66.0625 29.7812C66.2604 30.5 66.3854 31.25 66.4375 32.0312H66.5156C66.5677 31.4792 66.7292 30.7292 67 29.7812L71.9531 12.5938H74.4688L79.2188 29.9062C79.3854 30.5 79.5104 31.1979 79.5938 32H79.6562C79.6979 31.4583 79.8385 30.7396 80.0781 29.8438L84.6562 12.5938H87.5Z" fill="white"/>
<path d="M32.2812 82H29.375L27 75.7188H17.5L15.2656 82H12.3438L20.9375 59.5938H23.6562L32.2812 82ZM26.1406 73.3594L22.625 63.8125C22.5104 63.5 22.3958 63 22.2812 62.3125H22.2188C22.1146 62.9479 21.9948 63.4479 21.8594 63.8125L18.375 73.3594H26.1406Z" fill="white"/>
<path d="M65.8906 80.0938V77C66.2448 77.3125 66.6667 77.5938 67.1562 77.8438C67.6562 78.0938 68.1771 78.3073 68.7188 78.4844C69.2708 78.651 69.8229 78.7812 70.375 78.875C70.9271 78.9688 71.4375 79.0156 71.9062 79.0156C73.5208 79.0156 74.724 78.7188 75.5156 78.125C76.3177 77.5208 76.7188 76.6562 76.7188 75.5312C76.7188 74.9271 76.5833 74.401 76.3125 73.9531C76.0521 73.5052 75.6875 73.099 75.2188 72.7344C74.75 72.3594 74.1927 72.0052 73.5469 71.6719C72.9115 71.3281 72.224 70.9688 71.4844 70.5938C70.7031 70.1979 69.974 69.7969 69.2969 69.3906C68.6198 68.9844 68.0312 68.5365 67.5312 68.0469C67.0312 67.5573 66.6354 67.0052 66.3438 66.3906C66.0625 65.7656 65.9219 65.0365 65.9219 64.2031C65.9219 63.1823 66.1458 62.2969 66.5938 61.5469C67.0417 60.7865 67.6302 60.1615 68.3594 59.6719C69.0885 59.1823 69.9167 58.8177 70.8438 58.5781C71.7812 58.3385 72.7344 58.2188 73.7031 58.2188C75.9115 58.2188 77.5208 58.4844 78.5312 59.0156V61.9688C77.2083 61.0521 75.5104 60.5938 73.4375 60.5938C72.8646 60.5938 72.2917 60.6562 71.7188 60.7812C71.1458 60.8958 70.6354 61.0885 70.1875 61.3594C69.7396 61.6302 69.375 61.9792 69.0938 62.4062C68.8125 62.8333 68.6719 63.3542 68.6719 63.9688C68.6719 64.5417 68.776 65.0365 68.9844 65.4531C69.2031 65.8698 69.5208 66.25 69.9375 66.5938C70.3542 66.9375 70.8594 67.2708 71.4531 67.5938C72.0573 67.9167 72.75 68.2708 73.5312 68.6562C74.3333 69.0521 75.0938 69.4688 75.8125 69.9062C76.5312 70.3438 77.1615 70.8281 77.7031 71.3594C78.2448 71.8906 78.6719 72.4792 78.9844 73.125C79.3073 73.7708 79.4688 74.5104 79.4688 75.3438C79.4688 76.4479 79.25 77.3854 78.8125 78.1562C78.3854 78.9167 77.8021 79.5365 77.0625 80.0156C76.3333 80.4948 75.4896 80.8385 74.5312 81.0469C73.5729 81.2656 72.5625 81.375 71.5 81.375C71.1458 81.375 70.7083 81.3438 70.1875 81.2812C69.6667 81.2292 69.1354 81.1458 68.5938 81.0312C68.0521 80.9271 67.5365 80.7969 67.0469 80.6406C66.5677 80.474 66.1823 80.2917 65.8906 80.0938Z" fill="white"/>
<path d="M113.938 81V58.5938H120.125C128.021 58.5938 131.969 62.2344 131.969 69.5156C131.969 72.974 130.87 75.7552 128.672 77.8594C126.484 79.9531 123.552 81 119.875 81H113.938ZM116.562 60.9688V78.625H119.906C122.844 78.625 125.13 77.8385 126.766 76.2656C128.401 74.6927 129.219 72.4635 129.219 69.5781C129.219 63.8385 126.167 60.9688 120.062 60.9688H116.562Z" fill="white"/>
<path d="M113.891 175.094V172C114.245 172.312 114.667 172.594 115.156 172.844C115.656 173.094 116.177 173.307 116.719 173.484C117.271 173.651 117.823 173.781 118.375 173.875C118.927 173.969 119.438 174.016 119.906 174.016C121.521 174.016 122.724 173.719 123.516 173.125C124.318 172.521 124.719 171.656 124.719 170.531C124.719 169.927 124.583 169.401 124.312 168.953C124.052 168.505 123.688 168.099 123.219 167.734C122.75 167.359 122.193 167.005 121.547 166.672C120.911 166.328 120.224 165.969 119.484 165.594C118.703 165.198 117.974 164.797 117.297 164.391C116.62 163.984 116.031 163.536 115.531 163.047C115.031 162.557 114.635 162.005 114.344 161.391C114.062 160.766 113.922 160.036 113.922 159.203C113.922 158.182 114.146 157.297 114.594 156.547C115.042 155.786 115.63 155.161 116.359 154.672C117.089 154.182 117.917 153.818 118.844 153.578C119.781 153.339 120.734 153.219 121.703 153.219C123.911 153.219 125.521 153.484 126.531 154.016V156.969C125.208 156.052 123.51 155.594 121.438 155.594C120.865 155.594 120.292 155.656 119.719 155.781C119.146 155.896 118.635 156.089 118.188 156.359C117.74 156.63 117.375 156.979 117.094 157.406C116.812 157.833 116.672 158.354 116.672 158.969C116.672 159.542 116.776 160.036 116.984 160.453C117.203 160.87 117.521 161.25 117.938 161.594C118.354 161.938 118.859 162.271 119.453 162.594C120.057 162.917 120.75 163.271 121.531 163.656C122.333 164.052 123.094 164.469 123.812 164.906C124.531 165.344 125.161 165.828 125.703 166.359C126.245 166.891 126.672 167.479 126.984 168.125C127.307 168.771 127.469 169.51 127.469 170.344C127.469 171.448 127.25 172.385 126.812 173.156C126.385 173.917 125.802 174.536 125.062 175.016C124.333 175.495 123.49 175.839 122.531 176.047C121.573 176.266 120.562 176.375 119.5 176.375C119.146 176.375 118.708 176.344 118.188 176.281C117.667 176.229 117.135 176.146 116.594 176.031C116.052 175.927 115.536 175.797 115.047 175.641C114.568 175.474 114.182 175.292 113.891 175.094ZM134.219 173.688H134.156V183.359H131.594V160H134.156V162.812H134.219C135.479 160.688 137.323 159.625 139.75 159.625C141.812 159.625 143.422 160.344 144.578 161.781C145.734 163.208 146.312 165.125 146.312 167.531C146.312 170.208 145.661 172.354 144.359 173.969C143.057 175.573 141.276 176.375 139.016 176.375C136.943 176.375 135.344 175.479 134.219 173.688ZM134.156 167.234V169.469C134.156 170.792 134.583 171.917 135.438 172.844C136.302 173.76 137.396 174.219 138.719 174.219C140.271 174.219 141.484 173.625 142.359 172.438C143.245 171.25 143.688 169.599 143.688 167.484C143.688 165.703 143.276 164.307 142.453 163.297C141.63 162.286 140.516 161.781 139.109 161.781C137.62 161.781 136.422 162.302 135.516 163.344C134.609 164.375 134.156 165.672 134.156 167.234ZM161.859 176H159.297V173.5H159.234C158.12 175.417 156.479 176.375 154.312 176.375C152.719 176.375 151.469 175.953 150.562 175.109C149.667 174.266 149.219 173.146 149.219 171.75C149.219 168.76 150.979 167.021 154.5 166.531L159.297 165.859C159.297 163.141 158.198 161.781 156 161.781C154.073 161.781 152.333 162.438 150.781 163.75V161.125C152.354 160.125 154.167 159.625 156.219 159.625C159.979 159.625 161.859 161.615 161.859 165.594V176ZM159.297 167.906L155.438 168.438C154.25 168.604 153.354 168.901 152.75 169.328C152.146 169.745 151.844 170.49 151.844 171.562C151.844 172.344 152.12 172.984 152.672 173.484C153.234 173.974 153.979 174.219 154.906 174.219C156.177 174.219 157.224 173.776 158.047 172.891C158.88 171.995 159.297 170.865 159.297 169.5V167.906ZM177.594 175.266C176.365 176.005 174.906 176.375 173.219 176.375C170.938 176.375 169.094 175.635 167.688 174.156C166.292 172.667 165.594 170.74 165.594 168.375C165.594 165.74 166.349 163.625 167.859 162.031C169.37 160.427 171.385 159.625 173.906 159.625C175.312 159.625 176.552 159.885 177.625 160.406V163.031C176.438 162.198 175.167 161.781 173.812 161.781C172.177 161.781 170.833 162.37 169.781 163.547C168.74 164.714 168.219 166.25 168.219 168.156C168.219 170.031 168.708 171.51 169.688 172.594C170.677 173.677 172 174.219 173.656 174.219C175.052 174.219 176.365 173.755 177.594 172.828V175.266ZM194.328 168.641H183.031C183.073 170.422 183.552 171.797 184.469 172.766C185.385 173.734 186.646 174.219 188.25 174.219C190.052 174.219 191.708 173.625 193.219 172.438V174.844C191.812 175.865 189.953 176.375 187.641 176.375C185.38 176.375 183.604 175.651 182.312 174.203C181.021 172.745 180.375 170.698 180.375 168.062C180.375 165.573 181.078 163.547 182.484 161.984C183.901 160.411 185.656 159.625 187.75 159.625C189.844 159.625 191.464 160.302 192.609 161.656C193.755 163.01 194.328 164.891 194.328 167.297V168.641ZM191.703 166.469C191.693 164.99 191.333 163.839 190.625 163.016C189.927 162.193 188.953 161.781 187.703 161.781C186.495 161.781 185.469 162.214 184.625 163.078C183.781 163.943 183.26 165.073 183.062 166.469H191.703Z" fill="white"/>
<path d="M113.188 195.969H106.719V216H104.094V195.969H97.6406V193.594H113.188V195.969ZM119.938 216.375C117.573 216.375 115.682 215.63 114.266 214.141C112.859 212.641 112.156 210.656 112.156 208.188C112.156 205.5 112.891 203.401 114.359 201.891C115.828 200.38 117.812 199.625 120.312 199.625C122.698 199.625 124.557 200.359 125.891 201.828C127.234 203.297 127.906 205.333 127.906 207.938C127.906 210.49 127.182 212.536 125.734 214.078C124.297 215.609 122.365 216.375 119.938 216.375ZM120.125 201.781C118.479 201.781 117.177 202.344 116.219 203.469C115.26 204.583 114.781 206.125 114.781 208.094C114.781 209.99 115.266 211.484 116.234 212.578C117.203 213.672 118.5 214.219 120.125 214.219C121.781 214.219 123.052 213.682 123.938 212.609C124.833 211.536 125.281 210.01 125.281 208.031C125.281 206.031 124.833 204.49 123.938 203.406C123.052 202.323 121.781 201.781 120.125 201.781ZM143.344 215.328C143.344 217.953 142.812 219.974 141.75 221.391C140.698 222.818 139.188 223.531 137.219 223.531C136.49 223.531 135.781 223.365 135.094 223.031V220.641C135.865 221.109 136.594 221.344 137.281 221.344C139.615 221.344 140.781 219.479 140.781 215.75V200H143.344V215.328ZM142.094 195.938C141.635 195.938 141.245 195.781 140.922 195.469C140.599 195.156 140.438 194.76 140.438 194.281C140.438 193.802 140.599 193.406 140.922 193.094C141.245 192.771 141.635 192.609 142.094 192.609C142.562 192.609 142.958 192.771 143.281 193.094C143.615 193.406 143.781 193.802 143.781 194.281C143.781 194.74 143.615 195.13 143.281 195.453C142.958 195.776 142.562 195.938 142.094 195.938ZM161.469 216H158.906V213.469H158.844C157.781 215.406 156.135 216.375 153.906 216.375C150.094 216.375 148.188 214.104 148.188 209.562V200H150.734V209.156C150.734 212.531 152.026 214.219 154.609 214.219C155.859 214.219 156.885 213.76 157.688 212.844C158.5 211.917 158.906 210.708 158.906 209.219V200H161.469V216ZM189.375 216H186.812V206.812C186.812 205.042 186.536 203.76 185.984 202.969C185.443 202.177 184.526 201.781 183.234 201.781C182.141 201.781 181.208 202.281 180.438 203.281C179.677 204.281 179.297 205.479 179.297 206.875V216H176.734V206.5C176.734 203.354 175.521 201.781 173.094 201.781C171.969 201.781 171.042 202.255 170.312 203.203C169.583 204.141 169.219 205.365 169.219 206.875V216H166.656V200H169.219V202.531H169.281C170.417 200.594 172.073 199.625 174.25 199.625C175.344 199.625 176.297 199.932 177.109 200.547C177.922 201.151 178.479 201.948 178.781 202.938C179.969 200.729 181.74 199.625 184.094 199.625C187.615 199.625 189.375 201.797 189.375 206.141V216ZM196.844 213.688H196.781V223.359H194.219V200H196.781V202.812H196.844C198.104 200.688 199.948 199.625 202.375 199.625C204.438 199.625 206.047 200.344 207.203 201.781C208.359 203.208 208.938 205.125 208.938 207.531C208.938 210.208 208.286 212.354 206.984 213.969C205.682 215.573 203.901 216.375 201.641 216.375C199.568 216.375 197.969 215.479 196.844 213.688ZM196.781 207.234V209.469C196.781 210.792 197.208 211.917 198.062 212.844C198.927 213.76 200.021 214.219 201.344 214.219C202.896 214.219 204.109 213.625 204.984 212.438C205.87 211.25 206.312 209.599 206.312 207.484C206.312 205.703 205.901 204.307 205.078 203.297C204.255 202.286 203.141 201.781 201.734 201.781C200.245 201.781 199.047 202.302 198.141 203.344C197.234 204.375 196.781 205.672 196.781 207.234Z" fill="white"/>
<path d="M260.812 74H248.938V51.5938H260.312V53.9688H251.562V61.4219H259.656V63.7812H251.562V71.625H260.812V74Z" fill="white"/>
<path d="M23.1875 109.969H16.7188V130H14.0938V109.969H7.64062V107.594H23.1875V109.969ZM29.9375 130.375C27.5729 130.375 25.6823 129.63 24.2656 128.141C22.8594 126.641 22.1562 124.656 22.1562 122.188C22.1562 119.5 22.8906 117.401 24.3594 115.891C25.8281 114.38 27.8125 113.625 30.3125 113.625C32.6979 113.625 34.5573 114.359 35.8906 115.828C37.2344 117.297 37.9062 119.333 37.9062 121.938C37.9062 124.49 37.1823 126.536 35.7344 128.078C34.2969 129.609 32.3646 130.375 29.9375 130.375ZM30.125 115.781C28.4792 115.781 27.1771 116.344 26.2188 117.469C25.2604 118.583 24.7812 120.125 24.7812 122.094C24.7812 123.99 25.2656 125.484 26.2344 126.578C27.2031 127.672 28.5 128.219 30.125 128.219C31.7812 128.219 33.0521 127.682 33.9375 126.609C34.8333 125.536 35.2812 124.01 35.2812 122.031C35.2812 120.031 34.8333 118.49 33.9375 117.406C33.0521 116.323 31.7812 115.781 30.125 115.781ZM73.5 130H70.9375V120.812C70.9375 119.042 70.6615 117.76 70.1094 116.969C69.5677 116.177 68.651 115.781 67.3594 115.781C66.2656 115.781 65.3333 116.281 64.5625 117.281C63.8021 118.281 63.4219 119.479 63.4219 120.875V130H60.8594V120.5C60.8594 117.354 59.6458 115.781 57.2188 115.781C56.0938 115.781 55.1667 116.255 54.4375 117.203C53.7083 118.141 53.3438 119.365 53.3438 120.875V130H50.7812V114H53.3438V116.531H53.4062C54.5417 114.594 56.1979 113.625 58.375 113.625C59.4688 113.625 60.4219 113.932 61.2344 114.547C62.0469 115.151 62.6042 115.948 62.9062 116.938C64.0938 114.729 65.8646 113.625 68.2188 113.625C71.7396 113.625 73.5 115.797 73.5 120.141V130ZM85.0312 130.375C82.6667 130.375 80.776 129.63 79.3594 128.141C77.9531 126.641 77.25 124.656 77.25 122.188C77.25 119.5 77.9844 117.401 79.4531 115.891C80.9219 114.38 82.9062 113.625 85.4062 113.625C87.7917 113.625 89.651 114.359 90.9844 115.828C92.3281 117.297 93 119.333 93 121.938C93 124.49 92.276 126.536 90.8281 128.078C89.3906 129.609 87.4583 130.375 85.0312 130.375ZM85.2188 115.781C83.5729 115.781 82.2708 116.344 81.3125 117.469C80.3542 118.583 79.875 120.125 79.875 122.094C79.875 123.99 80.3594 125.484 81.3281 126.578C82.2969 127.672 83.5938 128.219 85.2188 128.219C86.875 128.219 88.1458 127.682 89.0312 126.609C89.9271 125.536 90.375 124.01 90.375 122.031C90.375 120.031 89.9271 118.49 89.0312 117.406C88.1458 116.323 86.875 115.781 85.2188 115.781ZM109.672 114L103.297 130H100.781L94.7188 114H97.5312L101.594 125.625C101.896 126.479 102.083 127.224 102.156 127.859H102.219C102.323 127.057 102.49 126.333 102.719 125.688L106.969 114H109.672ZM125.297 122.641H114C114.042 124.422 114.521 125.797 115.438 126.766C116.354 127.734 117.615 128.219 119.219 128.219C121.021 128.219 122.677 127.625 124.188 126.438V128.844C122.781 129.865 120.922 130.375 118.609 130.375C116.349 130.375 114.573 129.651 113.281 128.203C111.99 126.745 111.344 124.698 111.344 122.062C111.344 119.573 112.047 117.547 113.453 115.984C114.87 114.411 116.625 113.625 118.719 113.625C120.812 113.625 122.432 114.302 123.578 115.656C124.724 117.01 125.297 118.891 125.297 121.297V122.641ZM122.672 120.469C122.661 118.99 122.302 117.839 121.594 117.016C120.896 116.193 119.922 115.781 118.672 115.781C117.464 115.781 116.438 116.214 115.594 117.078C114.75 117.943 114.229 119.073 114.031 120.469H122.672Z" fill="white"/>
<path d="M206.188 109.969H199.719V130H197.094V109.969H190.641V107.594H206.188V109.969ZM212.938 130.375C210.573 130.375 208.682 129.63 207.266 128.141C205.859 126.641 205.156 124.656 205.156 122.188C205.156 119.5 205.891 117.401 207.359 115.891C208.828 114.38 210.812 113.625 213.312 113.625C215.698 113.625 217.557 114.359 218.891 115.828C220.234 117.297 220.906 119.333 220.906 121.938C220.906 124.49 220.182 126.536 218.734 128.078C217.297 129.609 215.365 130.375 212.938 130.375ZM213.125 115.781C211.479 115.781 210.177 116.344 209.219 117.469C208.26 118.583 207.781 120.125 207.781 122.094C207.781 123.99 208.266 125.484 209.234 126.578C210.203 127.672 211.5 128.219 213.125 128.219C214.781 128.219 216.052 127.682 216.938 126.609C217.833 125.536 218.281 124.01 218.281 122.031C218.281 120.031 217.833 118.49 216.938 117.406C216.052 116.323 214.781 115.781 213.125 115.781ZM235.094 109.938C234.635 109.938 234.245 109.781 233.922 109.469C233.599 109.156 233.438 108.76 233.438 108.281C233.438 107.802 233.599 107.406 233.922 107.094C234.245 106.771 234.635 106.609 235.094 106.609C235.562 106.609 235.958 106.771 236.281 107.094C236.615 107.406 236.781 107.802 236.781 108.281C236.781 108.74 236.615 109.13 236.281 109.453C235.958 109.776 235.562 109.938 235.094 109.938ZM236.344 130H233.781V114H236.344V130ZM254.812 130H252.25V120.875C252.25 117.479 251.01 115.781 248.531 115.781C247.25 115.781 246.188 116.266 245.344 117.234C244.51 118.193 244.094 119.406 244.094 120.875V130H241.531V114H244.094V116.656H244.156C245.365 114.635 247.115 113.625 249.406 113.625C251.156 113.625 252.495 114.193 253.422 115.328C254.349 116.453 254.812 118.083 254.812 120.219V130ZM267.078 129.844C266.474 130.177 265.677 130.344 264.688 130.344C261.885 130.344 260.484 128.781 260.484 125.656V116.188H257.734V114H260.484V110.094L263.047 109.266V114H267.078V116.188H263.047V125.203C263.047 126.276 263.229 127.042 263.594 127.5C263.958 127.958 264.562 128.188 265.406 128.188C266.052 128.188 266.609 128.01 267.078 127.656V129.844ZM283.359 122.641H272.062C272.104 124.422 272.583 125.797 273.5 126.766C274.417 127.734 275.677 128.219 277.281 128.219C279.083 128.219 280.74 127.625 282.25 126.438V128.844C280.844 129.865 278.984 130.375 276.672 130.375C274.411 130.375 272.635 129.651 271.344 128.203C270.052 126.745 269.406 124.698 269.406 122.062C269.406 119.573 270.109 117.547 271.516 115.984C272.932 114.411 274.688 113.625 276.781 113.625C278.875 113.625 280.495 114.302 281.641 115.656C282.786 117.01 283.359 118.891 283.359 121.297V122.641ZM280.734 120.469C280.724 118.99 280.365 117.839 279.656 117.016C278.958 116.193 277.984 115.781 276.734 115.781C275.526 115.781 274.5 116.214 273.656 117.078C272.812 117.943 272.292 119.073 272.094 120.469H280.734ZM295.594 116.594C295.146 116.25 294.5 116.078 293.656 116.078C292.562 116.078 291.646 116.594 290.906 117.625C290.177 118.656 289.812 120.062 289.812 121.844V130H287.25V114H289.812V117.297H289.875C290.24 116.172 290.797 115.297 291.547 114.672C292.297 114.036 293.135 113.719 294.062 113.719C294.729 113.719 295.24 113.792 295.594 113.938V116.594ZM309.828 130H307.266V127.5H307.203C306.089 129.417 304.448 130.375 302.281 130.375C300.688 130.375 299.438 129.953 298.531 129.109C297.635 128.266 297.188 127.146 297.188 125.75C297.188 122.76 298.948 121.021 302.469 120.531L307.266 119.859C307.266 117.141 306.167 115.781 303.969 115.781C302.042 115.781 300.302 116.438 298.75 117.75V115.125C300.323 114.125 302.135 113.625 304.188 113.625C307.948 113.625 309.828 115.615 309.828 119.594V130ZM307.266 121.906L303.406 122.438C302.219 122.604 301.323 122.901 300.719 123.328C300.115 123.745 299.812 124.49 299.812 125.562C299.812 126.344 300.089 126.984 300.641 127.484C301.203 127.974 301.948 128.219 302.875 128.219C304.146 128.219 305.193 127.776 306.016 126.891C306.849 125.995 307.266 124.865 307.266 123.5V121.906ZM325.562 129.266C324.333 130.005 322.875 130.375 321.188 130.375C318.906 130.375 317.062 129.635 315.656 128.156C314.26 126.667 313.562 124.74 313.562 122.375C313.562 119.74 314.318 117.625 315.828 116.031C317.339 114.427 319.354 113.625 321.875 113.625C323.281 113.625 324.521 113.885 325.594 114.406V117.031C324.406 116.198 323.135 115.781 321.781 115.781C320.146 115.781 318.802 116.37 317.75 117.547C316.708 118.714 316.188 120.25 316.188 122.156C316.188 124.031 316.677 125.51 317.656 126.594C318.646 127.677 319.969 128.219 321.625 128.219C323.021 128.219 324.333 127.755 325.562 126.828V129.266ZM336.859 129.844C336.255 130.177 335.458 130.344 334.469 130.344C331.667 130.344 330.266 128.781 330.266 125.656V116.188H327.516V114H330.266V110.094L332.828 109.266V114H336.859V116.188H332.828V125.203C332.828 126.276 333.01 127.042 333.375 127.5C333.74 127.958 334.344 128.188 335.188 128.188C335.833 128.188 336.391 128.01 336.859 127.656V129.844Z" fill="white"/>
</g>
<defs>
<clipPath id="clip0_1_2">
<rect width="338" height="224" fill="white"/>
</clipPath>
</defs>
</svg>
